:SAMPLES-PER-SECOND 30
:FULLY-SPECIFIED
:DEGREES
140
root  37.8781 36.4345 -2.14895 147.771 83.6688 140.022
RightUpLeg  -48.3199 -23.7964 10.1381
RightLeg  32.3082 0.556454 0.1243
RightFoot  5.55699 2.3321 -15.3306
RightToes  0.00048216 0.542163 -0.142577
Spine  57.2878 -4.94059 8.64074
Spine1  8.60701 -1.03226 -0.341228
HEad  -24.0468 -7.67049 -2.58007
LeftShoulder1  10.6216 -23.9171 -32.5503
LeftArm  1.72961 -65.9333 -47.3663
LeftForeArm  12.6287 -10.1076 -9.01097
LeftHand  -0.25398 0.0180481 5.50724
RightShoulder  4.92443 14.2966 21.3292
RightArm  -2.60664 57.136 35.7226
RightForeArm  -37.4452 21.2885 7.01297
RightHand  -6.60006 16.7413 -34.0556
LeftUpLeg  -49.7147 18.3325 -11.421
LeftLeg  51.8678 2.16272 3.45841
LeftFoot  -1.10927 0.0652594 -0.58904
LeftToes  1.06245e-005 4.65856e-005 -8.18504e-006
141
root  38.4913 36.5305 -2.03016 146.717 84.2962 135.455
RightUpLeg  -51.5449 -23.5776 12.3039
RightLeg  32.4354 1.22522 0.588742
RightFoot  4.66765 2.20564 -15.3488
RightToes  0.00048216 0.542163 -0.142577
Spine  60.2354 -4.94138 8.42814
Spine1  7.35882 -0.576378 -1.00536
HEad  -27.2152 -7.79709 -2.16703
LeftShoulder1  10.1448 -24.6576 -29.8058
LeftArm  -3.79707 -70.4938 -44.1746
LeftForeArm  13.2441 -7.93005 -8.75908
LeftHand  -0.25398 0.0180481 5.50724
RightShoulder  4.57817 14.6199 18.7435
RightArm  -10.2983 61.2849 32.1724
RightForeArm  -34.8914 18.8674 7.49524
RightHand  -7.08188 17.7174 -34.9287
LeftUpLeg  -51.9525 19.0956 -13.9294
LeftLeg  39.3073 -0.242659 0.22098
LeftFoot  0.584183 0.470935 -4.49278
LeftToes  1.06245e-005 4.65856e-005 -8.18504e-006
142
root  39.1342 36.4479 -2.00023 142.992 85.3293 128.397
RightUpLeg  -55.0996 -22.9606 14.5225
RightLeg  33.7265 2.04294 1.21155
RightFoot  3.87861 2.16263 -15.8697
RightToes  0.00048216 0.542163 -0.142577
Spine  61.8276 -4.74182 8.36228
Spine1  7.65175 0.077572 -1.92527
HEad  -30.0347 -8.0174 -1.73964
LeftShoulder1  9.75912 -25.5443 -27.3073
LeftArm  -11.536 -74.7782 -37.2977
LeftForeArm  12.9106 -6.73447 -8.06437
LeftHand  -0.25398 0.0180481 5.50724
RightShoulder  4.18545 14.5976 16.4199
RightArm  -19.6765 65.4037 26.1915
RightForeArm  -32.8159 16.6139 7.80539
RightHand  -7.29396 18.1584 -35.2707
LeftUpLeg  -53.8455 20.6646 -17.1271
LeftLeg  29.8806 -4.53192 -2.51061
LeftFoot  2.94586 0.712016 -5.90048
LeftToes  1.06245e-005 4.65856e-005 -8.18504e-006
143
root  39.7595 36.2837 -2.03696 139.59 85.977 121.882
RightUpLeg  -58.6535 -21.8824 15.8827
RightLeg  35.7956 2.05655 1.32325
RightFoot  2.6892 2.04785 -16.3557
RightToes  0.00048216 0.542163 -0.142577
Spine  62.7551 -4.85016 8.45124
Spine1  8.56384 0.744282 -3.04214
HEad  -32.2469 -8.62616 -1.51072
LeftShoulder1  9.52964 -26.5752 -25.2912
LeftArm  -22.3747 -78.0005 -26.4205
LeftForeArm  12.6077 -6.53065 -7.39006
LeftHand  -0.25398 0.0180481 5.50724
RightShoulder  3.78977 14.2246 14.5265
RightArm  -30.3067 68.8003 18.0278
RightForeArm  -29.9903 14.7203 7.73227
RightHand  -6.96194 17.7151 -34.3787
LeftUpLeg  -56.3404 20.8343 -20.0157
LeftLeg  26.4708 -7.29454 -3.63345
LeftFoot  5.15582 0.124528 -1.11145
LeftToes  1.06245e-005 4.65856e-005 -8.18504e-006
144
root  40.349 36.1115 -2.07499 140.411 86.1152 119.992
RightUpLeg  -61.6737 -20.6429 16.3063
RightLeg  38.0137 1.22594 0.750146
RightFoot  0.756209 1.72988 -16.1385
RightToes  0.00048216 0.542163 -0.142577
Spine  64.6166 -5.16253 8.39139
Spine1  7.41706 0.897593 -3.52699
HEad  -33.122 -8.99177 -1.42763
LeftShoulder1  9.45816 -27.1208 -24.4496
LeftArm  -33.1827 -79.4881 -14.7551
LeftForeArm  12.6401 -7.10228 -7.16284
LeftHand  -0.25398 0.0180481 5.50724
RightShoulder  3.55529 14.2272 13.0661
RightArm  -39.3886 70.5005 10.1707
RightForeArm  -27.2504 13.3536 7.43983
RightHand  -6.62711 17.3225 -33.3747
LeftUpLeg  -59.0465 19.0772 -21.0278
LeftLeg  27.7084 -6.40045 -3.28451
LeftFoot  5.90123 -1.02232 6.5572
LeftToes  1.06245e-005 4.65856e-005 -8.18504e-006
145
root  40.9174 35.9722 -2.08398 141.506 86.1989 118.966
RightUpLeg  -63.7602 -19.4347 16.291
RightLeg  39.8923 0.354466 0.0319434
RightFoot  -1.07192 1.41714 -15.7358
RightToes  0.00048216 0.542163 -0.142577
Spine  66.5999 -5.01576 8.31918
Spine1  5.78736 0.870867 -3.16048
HEad  -33.7355 -9.35388 -1.09684
LeftShoulder1  9.5043 -27.7127 -23.9751
LeftArm  -44.4012 -80.2714 -3.25238
LeftForeArm  13.5885 -8.14035 -6.77448
LeftHand  -0.25398 0.0180481 5.50724
RightShoulder  3.33359 14.2522 11.6548
RightArm  -48.4579 71.0519 1.98912
RightForeArm  -25.5592 12.401 6.95414
RightHand  -6.57147 17.3903 -33.0188
LeftUpLeg  -61.3439 17.3207 -20.6263
LeftLeg  30.0477 -4.28034 -2.33156
LeftFoot  5.12382 -1.51176 10.1877
LeftToes  1.06245e-005 4.65856e-005 -8.18504e-006
146
root  41.4669 35.908 -2.09429 136.569 86.4716 112.181
RightUpLeg  -65.2249 -18.1772 16.1471
RightLeg  41.1189 -0.111001 -0.398366
RightFoot  -2.07211 1.26189 -15.6214
RightToes  0.00048216 0.542163 -0.142577
Spine  68.6273 -4.61641 8.00055
Spine1  4.32852 1.03607 -3.10449
HEad  -34.307 -9.56755 -0.6534
LeftShoulder1  9.64842 -28.2494 -23.8972
LeftArm  -56.0055 -80.5014 8.2564
LeftForeArm  15.9292 -9.79826 -6.08238
LeftHand  -0.25398 0.0180481 5.50724
RightShoulder  3.12221 14.0853 10.518
RightArm  -57.4375 71.0239 -5.95495
RightForeArm  -23.4777 11.6926 6.22367
RightHand  -6.35759 17.1471 -32.3337
LeftUpLeg  -63.2895 16.8774 -20.4952
LeftLeg  31.5871 -3.57486 -2.02433
LeftFoot  3.91833 -1.26119 9.20689
LeftToes  1.06245e-005 4.65856e-005 -8.18504e-006
147
root  41.9945 35.9188 -2.14494 128.56 86.6929 102.212
RightUpLeg  -66.6293 -17.1601 16.0713
RightLeg  41.7488 -0.258749 -0.546575
RightFoot  -2.70543 1.15236 -15.3858
RightToes  0.00048216 0.542163 -0.142577
Spine  69.9552 -4.3774 7.61891
Spine1  3.80704 1.36521 -3.65216
HEad  -34.9353 -9.77876 -0.412912
LeftShoulder1  9.63246 -28.6031 -23.4844
LeftArm  -64.4429 -80.292 17.2953
LeftForeArm  18.7662 -12.6956 -5.26633
LeftHand  -0.25398 0.0180481 5.50724
RightShoulder  2.86969 13.5459 9.49945
RightArm  -65.2289 70.8824 -13.1508
RightForeArm  -19.9219 11.4387 5.4606
RightHand  -6.14072 16.9927 -31.5294
LeftUpLeg  -65.0324 17.1057 -21.2972
LeftLeg  32.2353 -4.03247 -2.38652
LeftFoot  3.17248 -1.08722 8.37791
LeftToes  1.06245e-005 4.65856e-005 -8.18504e-006
148
root  42.4886 35.9942 -2.22366 127.102 86.7453 98.8971
RightUpLeg  -67.761 -16.7023 16.1582
RightLeg  41.819 -0.363445 -0.647488
RightFoot  -3.38219 1.01076 -14.7534
RightToes  0.00048216 0.542163 -0.142577
Spine  70.7003 -4.60617 7.40905
Spine1  3.85913 1.38209 -4.34456
HEad  -35.447 -9.61019 -0.20983
LeftShoulder1  9.1251 -28.3803 -22.0344
LeftArm  -66.4831 -79.9018 21.4228
LeftForeArm  20.6156 -17.0899 -4.41432
LeftHand  -0.25398 0.0180481 5.50724
RightShoulder  2.60441 13.0019 8.32639
RightArm  -69.957 70.8303 -18.2705
RightForeArm  -17.2785 12.2946 5.1444
RightHand  -7.04854 18.7683 -33.3018
LeftUpLeg  -66.3947 17.1153 -22.314
LeftLeg  32.4913 -4.45735 -2.70173
LeftFoot  2.83871 -1.20368 9.51594
LeftToes  1.06245e-005 4.65856e-005 -8.18504e-006
149
root  42.9384 36.1042 -2.29429 130.633 86.7227 100.888
RightUpLeg  -68.4522 -16.3938 16.1124
RightLeg  41.5985 -0.645654 -0.912079
RightFoot  -3.79827 0.905577 -14.04
RightToes  0.00048216 0.542163 -0.142577
Spine  71.1095 -4.84849 7.25655
Spine1  4.14644 1.07931 -4.54297
HEad  -35.7687 -9.03021 0.130842
LeftShoulder1  8.45474 -27.7817 -20.3661
LeftArm  -66.2335 -79.6749 22.3376
LeftForeArm  23.0038 -22.0595 -3.77249
LeftHand  -0.25398 0.0180481 5.50724
RightShoulder  2.31433 12.4784 6.87368
RightArm  -72.1921 70.9975 -21.0603
RightForeArm  -17.8634 14.3092 5.23955
RightHand  -9.45758 22.4646 -38.2889
LeftUpLeg  -67.2697 16.9158 -23.0183
LeftLeg  32.4283 -4.59027 -2.78574
LeftFoot  2.47226 -1.27747 10.3877
LeftToes  1.06245e-005 4.65856e-005 -8.18504e-006
150
root  43.3369 36.2316 -2.36342 133.72 86.7476 103.006
RightUpLeg  -68.5577 -15.8923 15.6478
RightLeg  41.4149 -1.17085 -1.40435
RightFoot  -3.81965 0.856794 -13.3505
RightToes  0.00048216 0.542163 -0.142577
Spine  71.5632 -4.99494 7.18453
Spine1  4.45452 0.794497 -4.56512
HEad  -35.7952 -8.44718 0.513166
LeftShoulder1  8.12225 -27.3288 -19.6529
LeftArm  -68.3795 -79.8065 22.4748
LeftForeArm  27.7303 -25.8727 -4.03913
LeftHand  -0.25398 0.0180481 5.50724
RightShoulder  2.0486 11.9033 5.54448
RightArm  -74.2761 71.427 -22.5858
RightForeArm  -19.7778 15.9601 5.2834
RightHand  -12.082 25.7682 -43.2403
LeftUpLeg  -67.4359 16.8717 -23.4058
LeftLeg  31.9879 -4.69128 -2.80427
LeftFoot  2.06113 -1.2223 10.2666
LeftToes  1.06245e-005 4.65856e-005 -8.18504e-006
